<mxfile host="app.diagrams.net" modified="2023-08-11T09:31:02.899Z" agent="Mozilla/5.0 (X11; Linux x86_64) AppleWebKit/537.36 (KHTML, like Gecko) Chrome/115.0.0.0 Safari/537.36" version="21.6.7" etag="Al41Uj-yvd_yeXMYBLk2" type="github">
  <diagram name="第 1 页" id="yctrHIaJMlfU666wZOqb">
    <mxGraphModel>
      <root>
        <mxCell id="0" />
        <mxCell id="1" parent="0" />
      </root>
    </mxGraphModel>
  </diagram>
</mxfile>
